<?xml version="1.0" encoding="UTF-8"?>
<svg id="Layer_2" data-name="Layer 2" xmlns="http://www.w3.org/2000/svg" viewBox="0 0 221.87 149.58">
  <defs>
    <style>
      .cls-1 {
        fill: #0b81b2;
      }

      .cls-2 {
        fill: #0b80b2;
      }

      .cls-3 {
        fill: #db5246;
      }

      .cls-4 {
        fill: #db5146;
      }

      .cls-5 {
        fill: #db5145;
      }

      .cls-6 {
        fill: #f8f9fa;
      }

      .cls-7 {
        fill: #fbfbfb;
      }

      .cls-8 {
        fill: #070606;
      }
    </style>
  </defs>
  <g id="Layer_1-2" data-name="Layer 1">
    <g>
      <path class="cls-4" d="M216.77,27.52s-.14-.13-.11-.23c.05-.25,1.47-.5,1.78-.55l.85,2.27c.17-.65.35-1.38.57-2.01.31-.9.49-.9,1.47-.99-.08.48.1.92.13,1.37.03.57.09,1.91,0,2.41-.08.44-.97.57-1.15.31-.11-.17-.05-.67-.05-.91,0-.14.09-.45-.12-.42-.04.47-.21,1.6-.69,1.77-1.29.46-.78-1.22-1.59-1.77v2.22c-.12.21-1.08.42-1.08.12,0-1.15.09-2.47,0-3.6Z"/>
      <path class="cls-1" d="M152.79,132.06c.13.11.18.4.48.36.03.05.09.08.12.12,1.22,1.53,5.61,4.36,7.44,5.34,1.02.55,2.12.93,3.12,1.44.2.1.38.13.36.42-.89.61-1.63,1.4-2.46,2.04-3.72,2.87-7.71,5.4-12.27,6.69-13.09,3.7-22.98-2.36-32.9-10s-18.83-16.63-26.65-26.39c-1.43-1.78-2.72-3.67-4.2-5.4-.04-.26.05-.14.17-.19,1.53-.61,3.41-.92,5.02-1.34,5-1.33,9.98-2.71,14.98-4.05.23.72.86,1.2,1.32,1.74,3.71,4.41,8.04,8.89,12.36,12.72,1.61,1.43,2.69,2.72,5.05,2.04,1.42-.41,2.11-1.61,3-2.64.4-.46.45-.63.72-1.02.01-.02.22-.04.36-.17,1.94-1.82,4.02-4.12,5.88-6.07,1.88,4.1,4.16,8.1,6.74,11.8,3.03,4.35,6.4,8.04,10.3,11.6.11.1.22.23.36.36.04.04.08.08.12.12"/>
      <path class="cls-8" d="M151.95,131.86s-.08-.08-.12-.12l-.36-.36c-3.9-3.57-7.27-7.25-10.3-11.6-2.58-3.7-4.87-7.7-6.74-11.8.02-.02.02-.2.11-.3,1.61-1.69,3.2-3.4,4.93-4.98,1.4,4.27,3.82,8.14,6.38,11.8.78,1.11,1.75,2.12,2.38,3.32.05.09.28.33.24.36l-.48.19c.05.6.57.84.89,1.26,1.56,2.01,3.2,4,5.04,5.76,2.01,1.93,4.19,3.88,6.42,5.46.33.23.73.89,1.15.89.24,0,.45-.32.78-.12,2.01,1.49,4.7,3.21,6.96,3.84.03.53-.69.75-1.03,1.08-.24.24-.45.69-.71.85-.63.4-2.56.48-2.85,1.11-.13.28-.05.75-.49.79-.45-.36-.96-.34-1.43-.47-.08-.02-.3-.4-.41-.47-.59-.36-1.26-.25-1.6-.42-.22-.11-.26-.53-.83-.73-.89-.3-.45-.22-.97-.59-.26-.19-.9-.34-1.19-.49-.25-.13-.28-.4-.45-.54-.43-.35-.67-.21-1.17-.72-.73-.76-1.91-.83-2.6-1.54-.17-.18-.36-.31-.38-.36-.03-.04-.12-.09-.16-.14"/>
      <path class="cls-8" d="M109.83,100.3c.17.16.32.19.53.25.94.23,2.19-.41,2.98.11.16.11.55.76.74.97.61.65.79.94,1.62,1.2.33.1,4.14,4.23,4.8,4.86.14.14.34.22.49.35,2.27,2.16,4.51,4.54,7.2,6.18-.27.4-.32.56-.72,1.02-.89,1.03-1.58,2.23-3,2.64-2.36.68-3.44-.61-5.05-2.04-4.32-3.84-8.65-8.31-12.36-12.72-.46-.55-1.09-1.02-1.32-1.74,1.36-.36,2.72-.72,4.08-1.08Z"/>
      <path class="cls-8" d="M162.28,131.62c-.33-.2-.54.11-.78.12-.41,0-.82-.66-1.15-.89-2.23-1.58-4.4-3.54-6.42-5.46-1.85-1.76-3.98-3.27-5.54-5.28-.32-.42-1.07-.84-1.12-1.44l1.21-.48s-2.01-2.59-2.06-2.68c.3.03,2.35,2.76,2.54,2.99,3.78,4.61,8.54,9.58,13.32,13.14Z"/>
      <path class="cls-8" d="M153.15,132.82c.31-.05.36.08.53.26.69.71,1.69,1.02,2.42,1.78.5.51.74.37,1.17.72.17.14.21.41.45.54.29.15.93.3,1.19.49.52.38.08.29.97.59.57.19.61.61.83.73.34.17,1.01.06,1.6.42.11.07.33.45.41.47.47.13.98.11,1.43.47.44-.04.36-.51.49-.79.29-.62,2.22-.71,2.85-1.11.26-.16.47-.61.71-.85.34-.33,1.05-.54,1.03-1.08.25.07.54.08.72.3-1.45,1.37-3.12,2.5-4.76,3.64-.33.23-.8.4-1.12.62.02-.29-.16-.32-.36-.42-1.01-.51-2.1-.89-3.12-1.44-1.83-.99-6.22-3.81-7.44-5.34Z"/>
      <path class="cls-1" d="M151.83,131.74c-.14-.13-.25-.26-.36-.36l.36.36Z"/>
      <path class="cls-8" d="M147.51,98.86c1.81.4,5.13,2.77,6.71,3.91,6.93,5.01,14.41,12.81,18,20.65,1.05,2.29,3.46,8.55.02,9.76-.71-.12-1.79-.23-2.43-.51-.17-.08-.27-.27-.41-.31-.21-.07-.67.03-.75-.03-.04-.03,0-.34-.18-.48-.16-.13-.4-.08-.55-.17-.11-.07-.13-.27-.25-.35-.43-.33-1.57-.56-2.03-1.09-.13-.15-.13-.4-.24-.48s-.33-.04-.48-.12c-.84-.45-1.57-1.12-2.22-1.74-.49-.46-.71-.33-1.02-.54-.11-.07-.13-.27-.25-.35s-.34-.07-.42-.18c-.09-.13-.03-.36-.08-.52-.11-.34-1.08-.62-1.41-.87-.25-.2-.31-.59-.49-.83-.24-.33-1.93-1.9-2.29-2.15-.43-.3-.93-.31-1.26-.78-.48-.69-.56-1.27-1.31-1.93-.65-.58-.52-.18-.97-1.07-.08-.17-.96-.8-1.19-.97s-.78-.27-.78-.65c0-.18.18-.3.06-.54-.23-.46-.9-.96-1.15-1.29-.14-.18-.17-.54-.31-.75-.26-.41-.75-1.2-1.25-1.09.15-.69-.41-1.17-.95-1.52-.16-.1-.47-.16-.48-.17-.09-.1.08-.59-.07-.83-.05-.08-.33-.2-.48-.36-.27-.3-.25-.63-.42-.9-.18-.29-.87-.68-.94-.8-.09-.13.03-.52-.04-.74-.06-.2-.4-.23-.52-.44-.36-.64-.65-1.65-.99-2.37-.4-.83-.52-1.34-.78-2.22-.09-.31-.52-.57-.57-.87-.05-.28-.03-2.05.06-2.22.34-.17.43-.43.66-.67.19-.2.51-.19.49-.65.04-.01.08,0,.12,0,1.58-.38,2.32-.09,3.84.24Z"/>
      <path class="cls-8" d="M143.55,98.62c.02.46-.29.45-.49.65-.22.23-.32.5-.66.67-.09.17-.11,1.95-.06,2.22.05.3.48.56.57.87.25.88.38,1.4.78,2.22.34.71.64,1.73.99,2.37.12.21.46.24.52.44.07.22-.05.61.04.74.08.11.76.5.94.8.17.27.15.6.42.9.15.17.42.28.48.36.15.24-.01.73.07.83.02.02.32.07.48.17.53.34,1.1.83.95,1.52.5-.11.99.69,1.25,1.09.13.21.17.56.31.75.25.33.92.83,1.15,1.29.12.24-.06.36-.06.54,0,.38.55.48.78.65s1.11.8,1.19.97c.46.89.32.49.97,1.07.74.66.83,1.24,1.31,1.93.33.47.83.49,1.26.78.36.25,2.05,1.82,2.29,2.15.18.24.23.64.49.83.33.25,1.3.53,1.41.87.05.16-.01.39.08.52.08.11.3.1.42.18s.14.28.25.35c.31.21.54.08,1.02.54.65.61,1.38,1.28,2.22,1.74.15.08.36.05.48.12s.11.33.24.48c.47.53,1.6.76,2.03,1.09.11.09.14.28.25.35.15.1.39.04.55.17.18.14.14.45.18.48.07.07.53-.03.75.03.14.04.24.23.41.31.65.28,1.72.39,2.43.51-.45.16-.74.16-1.23.09-2.27-.32-6.25-3.16-8.12-4.6-5.63-4.33-10.74-9.84-14.87-15.61-2.03-2.84-5.53-7.99-5.99-11.41-.16-1.19.28-2.67,1.53-3.03Z"/>
      <path class="cls-4" d="M214.01,29.02l-1.08.12c.02-.42-.15-.77.27-.99.38-.2,3.16-.99,3.33-.81l-.11,1.03-1.19.31c-.18.25.17,2.51-.07,2.99-.15.29-.84.39-1.14.36v-3Z"/>
      <path class="cls-8" d="M115.71,102.82c-.83-.26-1.01-.54-1.62-1.2-.19-.21-.58-.86-.74-.97-.79-.52-2.04.12-2.98-.11-.22-.05-.37-.09-.53-.25.83-.22,2.32-.83,3.16-.58.53.16,2.21,2.58,2.72,3.1Z"/>
      <path class="cls-8" d="M147.51,98.86c-1.52-.33-3.11-.22-4.69.16.12-.23,1.19-.59,1.39-.63,1.15-.23,2.26-.04,3.3.48Z"/>
      <path class="cls-4" d="M22.73,75.38c.3-.3.97-.48,1.38-.6,2.03-.62,6-1.74,8.02-1.94.62-.06,1.03-.12,1.2.58.32,13.41.11,26.85.18,40.27-.01.76-.38,1.49-1.24,1.35-5.74-3.65-11.3-7.61-17.02-11.31-.98-.63-2.08-1.41-3.07-1.97-.93-.52-1.05-.06-1.12.87-.4,5.16.53,10.79.13,15.97-.12,1.6-.78,1.85-2.16,2.28-2.62.8-5.45,1.28-8.1,1.99-.7-.02-.86-.67-.91-1.26v-40.21c.18-1.53,1.12-1.36,2.2-.75,2.08,1.16,4.27,2.93,6.29,4.28,3.68,2.46,7.44,5.08,11.21,7.39.7.43,1.71,1.31,2.45.67l.06-16.02c.12-.54.1-1.17.52-1.58Z"/>
      <path class="cls-3" d="M46.19,84.61c.88-.1,1.5.15,1.59,1.11l-.05,24.91c-.23.76-.84,1-1.54,1.22-2.65.86-5.55,1.3-8.22,2.1-1.24.17-1.23-.75-1.36-1.71l.03-24.34c.31-1.36,3.01-1.78,4.17-2.07,1.55-.38,3.87-1.05,5.38-1.22Z"/>
      <path class="cls-5" d="M37.01,82.02c-3.49-3.41-.74-10.02,3.36-11.74,6.61-2.79,10.77,3.73,7.09,9.37-2.03,3.12-7.42,5.33-10.45,2.37Z"/>
      <path class="cls-4" d="M105.6,55.45c.11.11.25.68.27.87.19,1.92.15,5.61,0,7.57-.12,1.7-.94,1.88-2.38,2.3-3.5,1.03-7.61,1.62-10.98,2.83-.61.22-1.1.38-1.18,1.1s-.1,2.77,0,3.48c.14.93.9.64,1.56.49,3.33-.75,6.6-1.78,9.93-2.55,1.39-.19,1.03.65,1.11,1.59.18,2.15.29,5.06.13,7.2-.09,1.12-.77,1.34-1.71,1.65-2.99.96-6.23,1.51-9.24,2.4-.34.1-1.09.29-1.34.46-.81.54-.32,3.72-.25,4.67.17.27.43.26.72.24,4.09-.87,8.12-2.26,12.18-3.19.56-.13,1.17-.34,1.47.33.09.21.19.74.21.99.16,1.87.15,5.2,0,7.09-.07.85-.4,1.55-1.17,1.95-6.68,1.92-13.44,3.67-20.18,5.39-.79.2-2.27.7-2.98.75-.55.04-1.19-.44-1.25-1.01-.19-1.77.03-4.16.01-6.01-.13-10.89-.06-21.83-.13-32.76.13-1.86,1.04-2.08,2.62-2.54,7.05-2.06,14.3-3.51,21.36-5.52.3-.1.99.02,1.2.24Z"/>
      <path class="cls-5" d="M56.3,71.98c.23-.55,1.53-1.76,2.04-2.22,4.24-3.88,9.77-6.25,15.44-7.12.9-.14,3.47-.5,4.17-.12.52.28.64.81.68,1.36.23,3.01-.19,6.32,0,9.37.02.51-.69,1.11-1.15,1.13s-1.62-.47-2.18-.57c-4.14-.73-9.13,1.58-11.67,4.83-6.1,7.81-2.13,19.75,9.09,16.17,1.23-.39,2.45-1.05,3.55-1.73.71-.44,1.38-1.4,2.24-.63.41.37.21,1.59.24,2.16.14,2.61.17,5.26.09,7.89-.08.87-.86,1.23-1.57,1.55-9.3,4.25-21.84,3.69-26.25-6.86l.48-.31c.06-.21-.25-.62-.3-.89-.13-.71.07-.6-.5-1.29-.19-.23-.24-.16-.52-.15-.04-.16-.08-.3-.12-.48l.49-.3c-.01-.22-.31-.39-.33-.62-.1-1.01-.03-2.2-.03-3.22,0-.84-.07-1.84,0-2.65.05-.58.33-1.13.45-1.71.22-1.08.36-2.1.15-3.19.03-.17.49-.13.58-.22.11-.11.13-.83.2-1.06.23-.85.46-1.05.84-1.68.2-.35.27-.94.5-1.3.17-.27.45-.37.59-.73.22-.53.33-1-.18-1.32.04-.06.06-.15.12-.24.54,0,.39-.5.51-.69.04-.06.23-.08.32-.22.1-.15.08-.39.16-.5.14-.18.89-.56,1-.75.09-.17-.07-.33-.07-.48"/>
      <path class="cls-5" d="M53.3,76.06c.51.32,1.99.15,1.76.68-.15.36-.72.99-.89,1.26-.06.09-.28.65-.32.76-.12.34.95.35.8.61-.07.12-.2.4-.22.5-.08.42.12.13-.06.82-.06.23-.61.91-.71,1.02-.09.09-.12.79-.15.95.21,1.1-.77,1.8-1,2.88-.12.58-.17,1.15-.22,1.73-.07.81,0,1.35,0,2.19,0,1.02-.49,2.46-.39,3.47.02.23-.92.77-.91.98l-.94.16c-1.36-6.72-.23-12.2,3.24-18Z"/>
      <path class="cls-5" d="M50.17,94.54c.28-.01,1.26-2.15,1.46-1.92.57.69,1.19,2.45,1.33,3.17.05.26.17,1.71.11,1.92l-2.05-.53c-.45-1.08-.58-1.48-.84-2.64Z"/>
      <path class="cls-5" d="M57.28,70.77c0,.15-.42,2.6-.51,2.77-.1.2-.6.6-.74.78-.08.11-.24.5-.34.65-.09.14-.33,1.14-1.28.95-.22-.04-.45-.1-1-.1.41-.67.79-1.39,1.27-2.03.14-.19,2.35-3.01,2.6-3.02Z"/>
      <path class="cls-5" d="M130.08,48.73c1.18-.09,4.26-.23,5.13.56.08.07.16.17.21.27.25.56.07,3.26.09,4.11.05,1.88.27,3.87.13,5.76-.17,2.18-1.46,1.16-2.74.81-8.41-2.31-16.4,5.46-15.74,13.81s8.2,9.54,14.35,5.97c1.07-.62,2.01-1.58,3-2.16.17-.1.45-.3.64-.21.19.17.39.32.37.6-.17,3.03.2,6.25,0,9.25-.02.35-.15.69-.15,1.05-1.42,1.56-3.79,2.77-5.79,3.45-11.57,3.94-23.09-2.64-23.71-15.18-.7-13.92,10.15-27.05,24.22-28.11Z"/>
      <path class="cls-3" d="M208.82,29.17c.72-.04,1.13.85,1.11,1.47.14,9.15-.26,18.36.12,27.49.03.62-.12,1.89.02,2.38.1.36.56.37.87.31,2.93-.61,5.89-1.64,8.81-2.23,1.4-.29,1.94-.38,2.06,1.22.19,2.5-.12,5.25-.03,7.77-.09.66-.41,1.08-.96,1.44-6.96,1.92-13.98,3.68-21,5.35-.38-.07-.64-.29-.87-.58l-.03-41.07c.14-.67.55-1.1,1.17-1.35l8.74-2.19Z"/>
      <path class="cls-5" d="M184.81,35.17c.92-.13,1.27.38,1.35,1.23.05,10.07-.13,20.17.14,30.22.06.2.4.42.62.41l9.17-2.34c1.86-.36.98,1.47,1.35,2.55-.22,2.06.29,4.73,0,6.72-.07.48-.49.9-.84,1.2-3.23,1.07-6.61,1.85-9.93,2.67-3.03.75-6.23,1.64-9.27,2.26-.87.18-1.52.29-2.07-.57-.06-.53-.19-1.18-.22-1.7-.23-4.44.04-9.21.01-13.69-.06-8.37-.23-16.79-.11-25.18.1-.74.31-1.1,1.01-1.4,2.81-.56,6.01-1.98,8.8-2.37Z"/>
      <path class="cls-4" d="M144.99,88.06c-.3.01-.72-.11-.84.24-.04,0-.08,0-.12,0-.29.04-.72-.13-.84.24-.04,0-.08,0-.12,0-.28.02-.56-.01-.84,0v.24s-.08,0-.12,0c-.29.04-.72-.13-.84.24-.04,0-.08,0-.12,0-.28.02-.56-.01-.84,0M140.19,89.26c-.35-.02-.63-.17-1.01-.12-.35.05-.79.38-1.2.36-.36-.02-1.14-.61-1.16-1.02-.01-.31.15-1.18.1-1.42-.02-.11-.2-.22-.22-.38,0-.05.21-.84.25-1.01.07-.32.17-.48.24-.72h.24s0-.36,0-.36c-.03-.33.12-.65.24-.96.06-.02.1-.06.12-.12,1.75-5.05,4-10.1,5.97-15.09,3.22-8.12,6.36-16.27,9.57-24.39.23-.68,1-1.09,1.67-.71.3.17.73,1,.94,1.34,4.7,7.71,8.87,16.19,13.16,24.16,1.7,3.15,3.6,6.24,5.2,9.44.65,1.3.71,2.32-.83,2.94-2.52,1.02-5.89,1.29-8.51,2.17-2.11.45-2.11-1.87-3.07-3.09h-1.09c-3.45,1-6.99,1.68-10.44,2.65-.4.11-1.03.24-1.38.42-1.12.58-.87,2.82-1.66,3.74-.38.43-1.41.75-1.97.85M154.73,66c-1.03,2.08-1.53,4.39-2.39,6.55-.13.52.22.9.74.87.8-.05,2.85-.62,3.7-.87.73-.22,1.4-.23,1.12-1.17-.32-1.09-1.6-3.46-2.2-4.52-.17-.3-.55-1.15-.96-.86Z"/>
      <path class="cls-4" d="M146.47,87.62c-.25.18-6.93,1.87-7.23,1.94-1.29.29-3.84,1.36-3.46-.94.1-.59.63-1.87.87-2.49.07-.18,1.7-4.55,1.86-4.66-.04.17.27,4.82.28,4.87.02.17-1.08.75-1.06.86.05.24.4.77.41,1.08.01.41.05.34.4.37.41.03.61.05.95,0,.39-.05,6.62-1.06,6.97-1.04Z"/>
      <path class="cls-4" d="M140.31,89.02c.28-.01.56.02.84,0"/>
      <path class="cls-4" d="M144.15,88.3c.12-.35.54-.23.84-.24"/>
      <path class="cls-4" d="M141.27,89.02c.12-.37.55-.2.84-.24"/>
      <path class="cls-4" d="M137.67,83.62c.02-.06.06-.1.12-.12-.02.06-.06.1-.12.12Z"/>
      <path class="cls-2" d="M67.88,2.72c-.08.36-.28.71-.36,1.08-.02.11.02.25,0,.36-.14.81-.31,1.71-.36,2.52-.04.77,0,1.62,0,2.4,0,.26-.05.45.16.6,0,.08-.04.4-.04.48-.02.28-.08.78.12.96-.04,1.25.36,2.97.64,4.22,1.81,8.27,6.11,17.5,11.03,24.38,1.14,1.6,2.95,3.92,4.48,5.12.17.13.32.23.54.24-1.28.43-2.88,1.33-4.08,1.68-.44.13-.92.2-1.44.36-1.83.56-4.5.69-5.39,2.71-.79,1.81.34,4.52.95,6.29.15.43.38.85.36,1.32-5.28,1.4-10.65,3.06-15.98,4.24-.22.05-.69.19-.86.17-.46-.05-.87-.94-1.06-1.33-.94-1.93-1.8-4.37-2.59-6.41-3.49-9.03-7.25-19.84-5.15-29.58S57.32,7.85,66.04,3.45c.56-.28,1.33-.48,1.84-.74Z"/>
      <path class="cls-8" d="M74.3,11.98c1.6,8.16,6.46,18.88,11.18,25.72,1.38,1.99,2.87,3.9,4.66,5.54,0,.16-2.12.83-2.43.93-1.2.39-2.52.66-3.69,1.05-.22-.01-.38-.11-.54-.24-1.53-1.2-3.34-3.53-4.48-5.12-4.92-6.87-9.22-16.1-11.03-24.38-.27-1.25-.68-2.97-.64-4.22.01-.34.12-.62.12-.96h-.24c0-.08,0-.16,0-.24.01-.14.24-.54.12-.84h-.24c0-.78-.04-1.63,0-2.4.36.07.22-.17.26-.4.05-.33,0-.55.04-.8.04-.33.25-.53.3-.78.04-.17.12-.63-.24-.54.02-.11-.02-.25,0-.36.56-.11.28-.39.38-.76.12-.43.49-.2.79-.28.15-.04.62-.3.69-.41.1-.16.03-.38.18-.54.04-.04.87-.46.96-.49.38-.11.35.1.57.17.36.11.58-.19.87-.28.55-.16,1.69-.42,1.69.48,0,.79-.42,1.55-.49,2.28-.1,1-.03,2.58,0,3.59.02.7.23.37.02,1.35-.22,1.04.37,1.14.43,1.67.03.26-.28.53-.16.76l.91.48Z"/>
      <path class="cls-6" d="M78.5,47.26c.17.23.81.34.91.47.14.19,0,.81.08,1.13.04.18.2.28.22.32.03.08-.01.25,0,.36-.19.11-.13.47-.12.66.07,1.49.09,2.67.54,4.14.11.36.41.39.3,1.01s-.95.45-1.36.56c-.18.05-.32.33-.55.41-.9.29-1.75.39-2.71.41-.19,0-.36.12-.57.1-.54-.06-.65-.6-1.17-.58-.61-1.77-1.74-4.48-.95-6.29.89-2.02,3.56-2.15,5.39-2.71Z"/>
      <path class="cls-8" d="M67.82,2.86c.1-.05.39-.38.64-.5,1.87-.93,3.68-1.73,5.72-2.26-.75,2.87-.7,5.87-.35,8.81.12,1,.27,2.08.47,3.07l-.91-.48c-.12-.23.19-.5.16-.76-.06-.54-.65-.64-.43-1.67.21-.98,0-.65-.02-1.35-.04-1.01-.11-2.59,0-3.59.08-.73.49-1.49.49-2.28,0-.89-1.14-.64-1.69-.48-.29.09-.51.39-.87.28-.22-.07-.19-.28-.57-.17-.09.03-.92.45-.96.49-.15.16-.08.38-.18.54-.07.11-.54.37-.69.41-.3.08-.67-.16-.79.28-.1.37.18.65-.38.76.08-.37.28-.72.36-1.08Z"/>
      <path class="cls-7" d="M74.42,57.58c.02-.47-.21-.89-.36-1.32.52-.02.63.52,1.17.58.21.02.38-.09.57-.1.96-.02,1.81-.12,2.71-.41.24-.07.38-.35.55-.41.4-.12,1.25.07,1.36-.56s-.19-.65-.3-1.01c-.45-1.47-.47-2.66-.54-4.14,0-.19-.07-.55.12-.66.12.96.1,1.95.27,2.91.2,1.12.67,2.26,1.17,3.27-.04.2-2.56.88-2.97.99-1.24.34-2.52.55-3.75.87Z"/>
      <path class="cls-8" d="M94.58,41.5c-.38.16-1.33.11-1.68-.06-.13-.06-.21-.28-.37-.36-1.13-.58-1.41-1.06-2.28-1.92-.13-.13-.78-.52-.81-.57-.05-.08-.04-.46-.16-.74-.07-.16-.64-.92-.76-1.04-.15-.14-.35-.09-.4-.13s.04-.48-.07-.71c-.1-.21-.56-.48-.72-.72-.23-.37-.25-.6-.54-1.04-.23-.34-.52-.9-.75-1.2-.05-.06-.22-.08-.27-.15-.11-.14.21-.48-.12-.84-.59-.64-.6-1.1-.95-1.81-.09-.17-.35-.19-.4-.26-.33-.51-.8-1.43-1.08-1.98s-.54-.98-.99-1.35c-.05-.12-.52-1.05-.51-1.09.1-1.21.53.32.21-.58-.22-.63-.57-1.05-.72-1.56-.34-1.19-.5-1.46-1.07-2.53-.2-.37-.26-1.01-.79-1.07-1.54-4.27-2.94-8.81-3.13-13.37-.07-1.69.09-4.4.99-5.86.44-.72,1.81-.58,2.5-.38,4.23,1.22,9.06,9.98,10.91,13.82,2.66,5.53,5.17,12.87,6.01,18.96.37,2.69.87,7.14-2.03,8.57Z"/>
      <path class="cls-8" d="M81.22,24.51c.45.38,1.72,2.93,1.99,3.46s.75,1.47,1.08,1.98c.05.08.31.09.4.26.35.71.36,1.17.95,1.81.33.36,0,.7.12.84.06.07.22.09.27.15.24.3.53.87.75,1.2.29.43.31.67.54,1.04.16.25.61.51.72.72.11.23.02.66.07.71s.25,0,.4.13c.13.12.69.88.76,1.04.13.28.11.66.16.74.03.05.67.44.81.57.87.86,1.15,1.33,2.28,1.92.15.08.23.29.37.36.35.17,1.3.22,1.68.06-.08.04-.13.18-.32.22-1.94.42-3.61-1.46-4.72-2.8-1.67-2.02-3.23-4.59-4.54-6.86-.5-.87-3.72-6.86-3.78-7.54Z"/>
      <path class="cls-8" d="M82.22,26.5c-1.18-2.12-2.06-4.43-2.88-6.72.54.05,1.26.27,1.46.64.57,1.07,1.08,1.3,1.42,2.5.15.51-.03,1.07.19,1.7.32.9-.1.67-.19,1.89Z"/>
      <path class="cls-7" d="M79.94,46.9l-.24,2.28s-.18-.14-.22-.32c-.07-.32.06-.93-.08-1.13-.09-.13-.74-.24-.91-.47.52-.16,1-.23,1.44-.36Z"/>
      <path class="cls-8" d="M67.46,4.3c.36-.09.27.37.24.54-.05.25-.26.45-.3.78-.03.25.02.47-.04.8-.04.23.1.47-.26.4.05-.81.22-1.72.36-2.52Z"/>
      <path class="cls-8" d="M67.1,9.22l.28-.17c1.36.51.12,3.91.11,4.06-.21-.15-.39-3.63-.39-3.89Z"/>
    </g>
  </g>
</svg>